HIERARCHY
ROOT Hips
{
	OFFSET 0.000000 0.000000 0.000000
	CHANNELS 6 Xposition Yposition Zposition Zrotation Yrotation Xrotation 
	JOINT LeftUpLeg_virtual
	{
		OFFSET 0.000000 0.000000 0.000000
		CHANNELS 3 Zrotation Yrotation Xrotation
		JOINT LeftUpLeg
		{
			OFFSET 8.479694 -4.795517 -0.379053
			CHANNELS 3 Zrotation Yrotation Xrotation
			JOINT LeftLeg
			{
				OFFSET 0.485052 -32.551468 0.112863
				CHANNELS 3 Zrotation Yrotation Xrotation
				JOINT LeftFoot
				{
					OFFSET 0.438033 -32.635670 -3.012641
					CHANNELS 3 Zrotation Yrotation Xrotation
					JOINT LeftToeBase
					{
						OFFSET 0.970169 -13.225353 11.864223
						CHANNELS 3 Zrotation Yrotation Xrotation
						End Site
						{
							OFFSET 0.000000 0.000000 0.000000
						}
					}
				}
			}
		}
	}
	JOINT RightUpLeg_virtual
	{
		OFFSET 0.000000 0.000000 0.000000
		CHANNELS 3 Zrotation Yrotation Xrotation
		JOINT RightUpLeg
		{
			OFFSET -8.479694 -4.795517 -0.379053
			CHANNELS 3 Zrotation Yrotation Xrotation
			JOINT RightLeg
			{
				OFFSET -0.484100 -32.551483 0.112903
				CHANNELS 3 Zrotation Yrotation Xrotation
				JOINT RightFoot
				{
					OFFSET -0.438985 -32.635651 -3.012681
					CHANNELS 3 Zrotation Yrotation Xrotation
					JOINT RightToeBase
					{
						OFFSET -0.970169 -13.225354 11.864223
						CHANNELS 3 Zrotation Yrotation Xrotation
						End Site
						{
							OFFSET 0.000000 0.000000 0.000000
						}
					}
				}
			}
		}
	}
	JOINT Spine_virtual
	{
		OFFSET 0.000000 0.000000 0.000000
		CHANNELS 3 Zrotation Yrotation Xrotation
		JOINT Spine
		{
			OFFSET 0.000000 7.722015 1.166203
			CHANNELS 3 Zrotation Yrotation Xrotation
			JOINT Spine1
			{
				OFFSET 0.000000 12.024086 0.248766
				CHANNELS 3 Zrotation Yrotation Xrotation
				JOINT Spine2
				{
					OFFSET -0.000000 11.503036 -0.491240
					CHANNELS 3 Zrotation Yrotation Xrotation
					JOINT Neck_virtual
					{
						OFFSET 0.000000 0.000000 0.000000
						CHANNELS 3 Zrotation Yrotation Xrotation
						JOINT Neck
						{
							OFFSET 0.000000 18.430687 -3.123054
							CHANNELS 3 Zrotation Yrotation Xrotation
							JOINT Head
							{
								OFFSET -0.000000 9.051071 1.034021
								CHANNELS 3 Zrotation Yrotation Xrotation
								End Site
								{
									OFFSET 0.000000 0.000000 0.000000
								}
							}
						}
					}
					JOINT LeftShoulder_virtual
					{
						OFFSET 0.000000 0.000000 0.000000
						CHANNELS 3 Zrotation Yrotation Xrotation
						JOINT LeftShoulder
						{
							OFFSET 6.197824 13.665230 -4.064723
							CHANNELS 3 Zrotation Yrotation Xrotation
							JOINT LeftArm
							{
								OFFSET 7.778132 -0.187073 -1.709282
								CHANNELS 3 Zrotation Yrotation Xrotation
								JOINT LeftForeArm
								{
									OFFSET 21.954697 0.000000 -2.041093
									CHANNELS 3 Zrotation Yrotation Xrotation
									JOINT LeftHand
									{
										OFFSET 22.992908 0.000000 -0.870901
										CHANNELS 3 Zrotation Yrotation Xrotation
										End Site
										{
											OFFSET 0.000000 0.000000 0.000000
										}
									}
								}
							}
						}
					}
					JOINT RightShoulder_virtual
					{
						OFFSET 0.000000 0.000000 0.000000
						CHANNELS 3 Zrotation Yrotation Xrotation
						JOINT RightShoulder
						{
							OFFSET -6.197824 13.665230 -4.064723
							CHANNELS 3 Zrotation Yrotation Xrotation
							JOINT RightArm
							{
								OFFSET -7.778132 -0.187073 -1.709282
								CHANNELS 3 Zrotation Yrotation Xrotation
								JOINT RightForeArm
								{
									OFFSET -21.954697 0.000000 -2.041093
									CHANNELS 3 Zrotation Yrotation Xrotation
									JOINT RightHand
									{
										OFFSET -22.992908 0.000000 -0.870901
										CHANNELS 3 Zrotation Yrotation Xrotation
										End Site
										{
											OFFSET 0.000000 0.000000 0.000000
										}
									}
								}
							}
						}
					}
				}
			}
		}
	}
}
MOTION
Frames: 11
Frame Time: 0.033333
7.521466 78.877190 -41.106659 -179.375753 -68.329527 179.918220 -5.936671 -2.403993 12.165061 6.501844 -6.550277 -17.340051 7.090993 -0.286480 35.351679 -3.818716 -7.201605 -17.274486 0.000000 0.000000 0.000000 -0.275086 -2.691237 9.657385 -10.897286 12.554936 -42.101802 0.402531 9.843818 34.378299 15.028534 10.518296 -0.228066 0.000000 0.000000 0.000000 1.142144 -0.557979 -4.238748 3.657580 3.513301 -5.689261 -0.518775 -2.138949 10.321552 -0.017192 -0.098804 0.032594 -0.509920 -0.977358 11.527954 11.559355 -6.924684 6.955052 0.000000 0.000000 0.000000 0.955107 -1.028068 7.998685 18.406914 -2.368485 -2.924669 -77.376529 -6.501650 -3.721493 -160.103063 -84.188297 -178.093016 0.000000 0.000000 0.000000 -3.701991 1.093681 6.598054 0.290971 5.257582 -2.505599 81.432821 3.652024 0.042113 -150.505267 69.339179 -158.757324 0.000000 0.000000 0.000000 
5.838384 78.949089 -43.093857 -178.605745 -70.678456 178.921682 -4.816227 -2.651144 12.256216 5.927248 -6.960988 -16.890146 7.410423 -1.950326 36.276190 -3.811693 -7.025044 -14.513020 0.000000 0.000000 0.000000 -1.077647 -2.699445 9.692625 -9.620573 13.357383 -41.248773 1.138485 10.197233 36.041901 15.948755 10.846629 -0.979604 0.000000 0.000000 0.000000 1.284893 -0.573663 -4.345514 3.800821 3.275853 -5.739218 -0.550323 -2.229603 10.396404 -0.028973 -0.209944 0.024791 -0.597965 -0.931785 11.530626 11.600536 -7.106490 6.820401 0.000000 0.000000 0.000000 0.819019 -0.646243 8.113138 18.506749 -3.101423 -2.782169 -77.086621 -6.864013 -1.964862 -154.995079 -84.176371 177.111982 0.000000 0.000000 0.000000 -3.726829 1.057643 6.678684 0.271148 4.865645 -2.574714 81.527283 3.209967 -1.174479 -150.309883 69.382359 -158.660677 0.000000 0.000000 0.000000 
4.278463 79.135590 -44.812729 -178.148792 -73.205886 178.007010 -4.198891 -2.649325 12.329301 5.849430 -7.588817 -16.800341 7.344181 -2.521518 37.447649 -3.207313 -5.904484 -10.980833 0.000000 0.000000 0.000000 -1.344041 -2.731209 9.814339 -8.394485 13.267309 -39.974816 1.767526 10.436266 37.512133 16.193028 10.995712 -2.191925 0.000000 0.000000 0.000000 1.357253 -0.551699 -4.190315 3.776710 3.235655 -5.691996 -0.635986 -2.181467 10.598432 -0.025650 -0.143972 0.001917 -0.720908 -0.929932 11.453157 11.815769 -7.354440 6.758842 0.000000 0.000000 0.000000 0.691484 -0.678018 8.108423 18.824104 -3.497797 -2.574626 -76.185323 -7.071189 -1.847242 -153.673396 -84.192586 176.105650 0.000000 0.000000 0.000000 -3.878920 1.119584 6.528869 0.354608 4.143235 -2.473699 81.163657 2.626641 -2.613261 -150.228549 69.220347 -158.680553 0.000000 0.000000 0.000000 
2.864343 79.395042 -46.165173 -178.188980 -75.552411 177.811162 -4.080946 -2.742162 12.190262 5.961740 -6.980148 -17.257443 7.872660 -1.161468 39.078798 -2.370629 -4.352808 -7.688427 0.000000 0.000000 0.000000 -1.397578 -2.849085 10.042597 -7.124041 12.306793 -38.321610 1.812955 10.239502 38.266012 15.455665 10.455788 -3.421049 0.000000 0.000000 0.000000 1.303154 -0.263478 -3.941335 3.650285 3.229281 -5.619374 -0.702914 -2.131225 10.717168 -0.034816 -0.081555 0.023411 -0.752250 -0.914415 11.404060 11.942024 -7.479538 6.654981 0.000000 0.000000 0.000000 0.661349 -0.653697 8.071001 19.450132 -3.528411 -2.365820 -74.964905 -7.227816 -3.490066 -151.970316 -84.024564 174.717537 0.000000 0.000000 0.000000 -3.924722 1.143409 6.524371 0.258727 3.620297 -2.429739 80.572169 2.226728 -4.083848 -150.355905 69.001959 -158.907930 0.000000 0.000000 0.000000 
1.571671 79.692223 -47.178482 -178.479127 -77.938961 178.063687 -4.218095 -3.177368 11.698377 5.948667 -4.809705 -18.486640 8.528451 0.154508 42.090429 -2.118980 -3.658928 -6.264017 0.000000 0.000000 0.000000 -1.511155 -2.907523 10.266643 -5.994555 11.230621 -36.505794 1.586369 10.114086 38.306570 14.526037 9.890146 -4.464266 0.000000 0.000000 0.000000 1.217690 -0.037924 -3.667674 3.478002 3.255793 -5.521261 -0.727860 -2.131185 10.783309 -0.011475 -0.028436 -0.009547 -0.796597 -0.912974 11.497305 11.991539 -7.628826 6.630751 0.000000 0.000000 0.000000 0.636293 -0.686548 8.091391 20.105919 -3.217145 -2.242383 -73.567148 -7.316056 -6.234178 -149.677694 -83.763446 172.709038 0.000000 0.000000 0.000000 -3.934802 1.203458 6.647173 0.088925 3.231919 -2.368205 79.575460 2.163439 -5.458750 -150.702018 68.914321 -159.275504 0.000000 0.000000 0.000000 
0.333404 79.981918 -47.977631 -178.563193 -80.421557 178.177970 -4.169404 -3.038338 11.242989 6.083244 -3.121555 -20.527766 8.742436 0.546585 45.854478 -2.341586 -3.567766 -5.515320 0.000000 0.000000 0.000000 -1.470177 -3.170641 10.415370 -5.189369 10.250719 -34.610952 1.375443 9.839955 37.989174 13.709500 9.036135 -5.604180 0.000000 0.000000 0.000000 1.209522 -0.050827 -3.390291 3.336225 3.405813 -5.328326 -0.732864 -2.139994 10.749058 -0.024953 0.008924 0.082168 -0.752403 -1.050216 11.487471 12.075098 -7.864747 6.493507 0.000000 0.000000 0.000000 0.737694 -0.710850 8.173079 20.724206 -2.900467 -1.956619 -72.254754 -7.463234 -9.378334 -147.724697 -83.306485 171.015929 0.000000 0.000000 0.000000 -3.900957 1.169537 6.686313 -0.182296 2.836614 -2.345727 78.673541 2.275396 -6.691079 -150.584457 68.973900 -159.187900 0.000000 0.000000 0.000000 
-0.839213 80.242050 -48.681355 -178.681355 -82.820395 178.355774 -3.899835 -3.187052 11.284415 6.188587 -1.957591 -23.173688 8.152720 0.153020 49.115679 -3.141585 -4.275857 -5.434318 0.000000 0.000000 0.000000 -1.368245 -3.628711 10.433601 -4.438058 9.237959 -32.702242 1.008819 9.472253 37.394968 12.660266 8.656577 -6.765558 0.000000 0.000000 0.000000 1.273052 -0.248194 -3.194641 3.243719 3.619234 -5.123774 -0.740455 -2.162030 10.992850 -0.068445 0.020669 -0.024689 -0.645985 -1.069152 11.647419 12.223343 -7.791418 6.529549 0.000000 0.000000 0.000000 0.831385 -0.761161 8.213644 21.351846 -2.508472 -1.760081 -71.424845 -7.157099 -11.765006 -147.312591 -83.111169 170.817731 0.000000 0.000000 0.000000 -3.804376 1.066469 6.818351 -0.234360 2.615783 -2.310073 77.930539 2.339299 -7.430232 -150.387310 69.091871 -159.014986 0.000000 0.000000 0.000000 
-1.989324 80.446686 -49.320831 -178.679347 -85.280089 178.331513 -3.545570 -3.429241 11.374580 6.163294 -1.048699 -25.968200 7.917217 0.137670 51.687255 -3.752856 -5.020384 -7.237441 0.000000 0.000000 0.000000 -1.336569 -4.147197 10.452997 -3.851572 8.428733 -30.790343 0.968261 9.091532 36.830832 11.491648 8.186621 -7.987569 0.000000 0.000000 0.000000 1.346798 -0.586294 -2.976762 3.259808 3.863150 -4.846558 -0.712960 -2.210147 11.153336 -0.016555 0.012439 -0.065467 -0.688711 -1.014596 11.836544 12.289586 -8.246526 6.650910 0.000000 0.000000 0.000000 0.823791 -0.744148 8.323850 21.609836 -2.067323 -1.465822 -71.051009 -6.471257 -13.121372 -146.606404 -82.891073 170.401253 0.000000 0.000000 0.000000 -3.844817 1.235788 6.975908 -0.083838 2.454740 -2.206046 77.548397 2.054426 -7.411379 -149.789491 69.312616 -158.270400 0.000000 0.000000 0.000000 
-3.171884 80.577209 -49.868263 -177.879504 -87.592381 177.500156 -3.331931 -3.812893 11.427126 6.083436 0.158925 -28.570270 7.892320 0.291133 52.588983 -4.083010 -5.335654 -8.284649 0.000000 0.000000 0.000000 -1.279317 -4.625896 10.439691 -3.307349 7.753795 -28.930489 0.762305 8.482181 36.341633 10.639865 7.834217 -9.160208 0.000000 0.000000 0.000000 1.472442 -0.895281 -2.810909 3.365851 4.196638 -4.599628 -0.736667 -2.202451 11.344286 -0.048181 -0.046593 -0.057716 -0.627350 -0.920785 12.046381 12.384072 -8.301245 6.644993 0.000000 0.000000 0.000000 0.877362 -0.733976 8.435196 21.646461 -1.752597 -1.200586 -71.263113 -5.355605 -13.070820 -145.174687 -82.713632 169.333381 0.000000 0.000000 0.000000 -3.803480 1.297150 7.110335 0.083323 2.436836 -2.111612 77.753193 1.407309 -6.577937 -148.877251 69.724169 -157.686938 0.000000 0.000000 0.000000 
-4.386308 80.668076 -50.246780 -147.880672 -89.805165 147.482280 -3.180722 -4.154917 11.480956 5.951436 1.116323 -30.805929 7.881701 0.697843 51.695482 -3.984113 -4.987302 -7.536762 0.000000 0.000000 0.000000 -1.021376 -5.012137 10.439411 -3.124497 7.234098 -27.182116 0.523068 7.799344 35.977424 9.864151 7.581675 -10.312234 0.000000 0.000000 0.000000 1.654612 -0.945576 -2.607161 3.580002 4.472082 -4.466420 -0.782560 -2.261391 11.552075 -0.041939 0.054102 -0.048526 -0.698056 -1.008429 12.211437 12.378482 -8.856461 6.551218 0.000000 0.000000 0.000000 0.824094 -0.802090 8.615978 21.511134 -1.684035 -0.971983 -71.845961 -4.024491 -11.594385 -142.830566 -82.643609 167.191788 0.000000 0.000000 0.000000 -3.833596 1.259766 7.336176 0.258397 2.396912 -1.962934 78.037124 0.619482 -4.897965 -148.257876 70.452759 -156.870963 0.000000 0.000000 0.000000 
-5.655146 80.730309 -50.458168 -2.577739 -87.839429 2.244880 -3.071888 -4.452206 11.464303 5.652407 1.825903 -32.682636 7.907590 1.220673 49.461703 -4.040485 -4.781021 -6.624551 0.000000 0.000000 0.000000 -0.675944 -5.364931 10.452195 -3.121389 6.772660 -25.555344 0.257819 7.072313 35.732435 9.134365 7.273436 -11.431075 0.000000 0.000000 0.000000 1.886225 -1.314851 -2.475309 3.827921 4.770240 -4.385137 -0.844645 -2.144496 11.756007 -0.004985 0.033412 -0.045848 -0.784457 -1.040586 12.390753 12.402687 -9.089350 6.488482 0.000000 0.000000 0.000000 0.745432 -0.741655 8.809755 21.071127 -1.772071 -0.781772 -72.569367 -2.552453 -9.223809 -140.951308 -82.496691 165.852129 0.000000 0.000000 0.000000 -3.995866 1.267062 7.508974 0.426786 2.445195 -1.712217 78.317886 -0.107223 -2.430129 -147.354843 71.186205 -155.926334 0.000000 0.000000 0.000000 
